<svg width="83" height="95" viewBox="0 0 83 95" fill="none" xmlns="http://www.w3.org/2000/svg">
<path d="M39.7376 48.9347L0 25.9375V71.6707L9.51712 77.1662V43.343L28.7213 55.0699V88.2546L39.7376 94.6406V48.9347Z" fill="#00F0DE"/>
<path d="M29.6607 77.3983L8.61719 65.4094L8.67187 53.9336L29.6607 65.9832V77.3983Z" fill="#00F0DE"/>
<path d="M42.9342 48.9347L82.6719 25.9375V71.6707L73.1548 77.1662V43.343L53.9506 55.0699V88.2546L42.9342 94.6406V48.9347Z" fill="#00F0DE"/>
<path d="M53.0346 77.3983L74.0781 65.4094L74.0234 53.9336L53.0346 65.9832V77.3983Z" fill="#00F0DE"/>
<path d="M81.3428 22.9971L71.04 29.0684L40.501 11.4062L49.332 23.5488L44.1807 26.4922L20.6328 21.8926L51.9072 40.1064L41.4209 45.9941L1.86719 22.9971L19.7861 12.5781L32.2168 15.4463L26.0205 8.95312L41.4209 0L81.3428 22.9971Z" fill="#008D83"/>
</svg>
